# xmcd
#
# Track frame offsets:
#	150
#	13707
#	32122
#	43412
#	57960
#	68202
#	85637
#	100307
#	115820
#	135262
#
# Disc length: 2004
#
# Revision: 4
# Processed by: cddbd v1.5.1PL0 Copyright (c) Steve Scherf et al.
# Submitted via: CDex 1.30Release
# Normalized: r2:TDELIM( - );r3:TSWAP
#
DISCID=8007d20a
DTITLE=Various Artist - Greatest Country Hits of the 90's - 1990
DYEAR=1900
DGENRE=Country
TTITLE0=Waylon Jennings - Wrong
TTITLE1=Shelby Lynne - I'll Lie Myself To Sleep
TTITLE2=Ricky Van Shelton - I've Cried My Last Tear For You
TTITLE3=Highwaymen - Silver Stallion
TTITLE4=Vern Gosdin - Right In The Wrong Direction
TTITLE5=Mary-Chapin Carpenter - Quittin' Time
TTITLE6=Shenandoah - See If I Care
TTITLE7=Rodney Crowell - If Looks Could Kill
TTITLE8=Dolly Parton - Whit Limozeen
TTITLE9=Doug Stone - I'd Be Better Off (In A Pine Box)
EXTD=ID3G:   2
EXTT0=
EXTT1=
EXTT2=
EXTT3=
EXTT4=
EXTT5=
EXTT6=
EXTT7=
EXTT8=
EXTT9=
PLAYORDER=
